<svg width="103" height="101" viewBox="0 0 103 101" fill="none" xmlns="http://www.w3.org/2000/svg">
<path d="M72.8924 39.7344H57.3384C57.0543 37.7221 56.4743 35.9347 55.5984 34.3722C54.7224 32.786 53.5979 31.4366 52.2248 30.3239C50.8517 29.2112 49.2655 28.3589 47.4663 27.767C45.6907 27.1752 43.7612 26.8793 41.6779 26.8793C37.9137 26.8793 34.6348 27.8144 31.8413 29.6847C29.0477 31.5312 26.8815 34.2301 25.3427 37.7812C23.8039 41.3087 23.0344 45.5937 23.0344 50.6364C23.0344 55.821 23.8039 60.1771 25.3427 63.7045C26.9052 67.232 29.0832 69.8954 31.8768 71.6946C34.6703 73.4938 37.9019 74.3935 41.5714 74.3935C43.631 74.3935 45.5368 74.1212 47.2887 73.5767C49.0643 73.0322 50.6386 72.2391 52.0117 71.1974C53.3848 70.1321 54.5212 68.8419 55.4208 67.3267C56.3441 65.8116 56.9833 64.0833 57.3384 62.142L72.8924 62.2131C72.4899 65.5511 71.4838 68.7708 69.8739 71.8722C68.2878 74.9498 66.1452 77.7079 63.4464 80.1463C60.7712 82.5611 57.5752 84.4787 53.8583 85.8991C50.1651 87.2959 45.9866 87.9943 41.3228 87.9943C34.8361 87.9943 29.0359 86.5265 23.9222 83.5909C18.8323 80.6553 14.8076 76.4058 11.8484 70.8423C8.91276 65.2789 7.44496 58.5436 7.44496 50.6364C7.44496 42.7055 8.93643 35.9583 11.9194 30.3949C14.9023 24.8314 18.9506 20.5937 24.0643 17.6818C29.1779 14.7462 34.9308 13.2784 41.3228 13.2784C45.5368 13.2784 49.4431 13.8703 53.0415 15.054C56.6637 16.2377 59.8716 17.9659 62.6651 20.2386C65.4587 22.4877 67.7314 25.2457 69.4833 28.5128C71.2589 31.7798 72.3952 35.5204 72.8924 39.7344Z" fill="#65BDEE"/>
<rect x="45" y="71" width="58" height="23" rx="5" fill="black"/>
<path d="M56.9379 88H53.0707V77.0909H56.9699C58.0672 77.0909 59.0118 77.3093 59.8037 77.7461C60.5956 78.1793 61.2046 78.8026 61.6307 79.6158C62.0604 80.429 62.2753 81.402 62.2753 82.5348C62.2753 83.6712 62.0604 84.6477 61.6307 85.4645C61.2046 86.2812 60.592 86.908 59.793 87.3448C58.9976 87.7816 58.0459 88 56.9379 88ZM55.3772 86.0238H56.842C57.5238 86.0238 58.0973 85.9031 58.5625 85.6616C59.0313 85.4165 59.3829 85.0384 59.6172 84.527C59.8552 84.0121 59.9741 83.348 59.9741 82.5348C59.9741 81.7287 59.8552 81.07 59.6172 80.5586C59.3829 80.0472 59.0331 79.6708 58.5679 79.4293C58.1027 79.1879 57.5292 79.0671 56.8473 79.0671H55.3772V86.0238ZM74.0087 82.5455C74.0087 83.7351 73.7832 84.7472 73.3322 85.5817C72.8847 86.4162 72.2739 87.0536 71.4998 87.494C70.7292 87.9308 69.8627 88.1491 68.9003 88.1491C67.9309 88.1491 67.0609 87.929 66.2903 87.4886C65.5197 87.0483 64.9106 86.4109 64.4632 85.5763C64.0158 84.7418 63.792 83.7315 63.792 82.5455C63.792 81.3558 64.0158 80.3438 64.4632 79.5092C64.9106 78.6747 65.5197 78.0391 66.2903 77.6023C67.0609 77.1619 67.9309 76.9418 68.9003 76.9418C69.8627 76.9418 70.7292 77.1619 71.4998 77.6023C72.2739 78.0391 72.8847 78.6747 73.3322 79.5092C73.7832 80.3438 74.0087 81.3558 74.0087 82.5455ZM71.6702 82.5455C71.6702 81.7749 71.5548 81.125 71.324 80.5959C71.0967 80.0668 70.7753 79.6655 70.3599 79.392C69.9444 79.1186 69.4579 78.9819 68.9003 78.9819C68.3428 78.9819 67.8563 79.1186 67.4408 79.392C67.0253 79.6655 66.7022 80.0668 66.4714 80.5959C66.2441 81.125 66.1305 81.7749 66.1305 82.5455C66.1305 83.3161 66.2441 83.9659 66.4714 84.495C66.7022 85.0241 67.0253 85.4254 67.4408 85.6989C67.8563 85.9723 68.3428 86.109 68.9003 86.109C69.4579 86.109 69.9444 85.9723 70.3599 85.6989C70.7753 85.4254 71.0967 85.0241 71.324 84.495C71.5548 83.9659 71.6702 83.3161 71.6702 82.5455ZM85.3426 80.9102H83.0095C82.9668 80.6083 82.8798 80.3402 82.7484 80.1058C82.6171 79.8679 82.4484 79.6655 82.2424 79.4986C82.0364 79.3317 81.7985 79.2038 81.5286 79.1151C81.2623 79.0263 80.9729 78.9819 80.6604 78.9819C80.0957 78.9819 79.6039 79.1222 79.1849 79.4027C78.7658 79.6797 78.4409 80.0845 78.2101 80.6172C77.9793 81.1463 77.8639 81.7891 77.8639 82.5455C77.8639 83.3232 77.9793 83.9766 78.2101 84.5057C78.4445 85.0348 78.7712 85.4343 79.1902 85.7042C79.6092 85.9741 80.094 86.109 80.6444 86.109C80.9533 86.109 81.2392 86.0682 81.502 85.9865C81.7683 85.9048 82.0045 85.7859 82.2104 85.6296C82.4164 85.4698 82.5869 85.2763 82.7218 85.049C82.8603 84.8217 82.9562 84.5625 83.0095 84.2713L85.3426 84.282C85.2822 84.7827 85.1313 85.2656 84.8898 85.7308C84.6519 86.1925 84.3305 86.6062 83.9256 86.9719C83.5244 87.3342 83.045 87.6218 82.4874 87.8349C81.9335 88.0444 81.3067 88.1491 80.6071 88.1491C79.6341 88.1491 78.7641 87.929 77.997 87.4886C77.2335 87.0483 76.6298 86.4109 76.1859 85.5763C75.7456 84.7418 75.5254 83.7315 75.5254 82.5455C75.5254 81.3558 75.7492 80.3438 76.1966 79.5092C76.644 78.6747 77.2513 78.0391 78.0183 77.6023C78.7854 77.1619 79.6483 76.9418 80.6071 76.9418C81.2392 76.9418 81.8252 77.0305 82.3649 77.2081C82.9082 77.3857 83.3894 77.6449 83.8085 77.9858C84.2275 78.3232 84.5684 78.7369 84.8312 79.2269C85.0975 79.717 85.268 80.2781 85.3426 80.9102ZM92.9145 80.2283C92.8718 79.7987 92.689 79.4648 92.3658 79.2269C92.0427 78.989 91.6041 78.87 91.0501 78.87C90.6737 78.87 90.3559 78.9233 90.0966 79.0298C89.8374 79.1328 89.6385 79.2766 89.5 79.4613C89.3651 79.646 89.2976 79.8555 89.2976 80.0898C89.2905 80.2852 89.3314 80.4556 89.4201 80.6012C89.5125 80.7468 89.6385 80.8729 89.7983 80.9794C89.9581 81.0824 90.1428 81.1729 90.3523 81.2511C90.5618 81.3256 90.7856 81.3896 91.0235 81.4428L92.0036 81.6772C92.4794 81.7837 92.9162 81.9258 93.314 82.1033C93.7117 82.2809 94.0562 82.4993 94.3473 82.7585C94.6385 83.0178 94.864 83.3232 95.0238 83.6747C95.1872 84.0263 95.2706 84.4293 95.2742 84.8839C95.2706 85.5515 95.1002 86.1303 94.7628 86.6204C94.429 87.1069 93.9461 87.4851 93.314 87.755C92.6854 88.0213 91.9272 88.1545 91.0395 88.1545C90.1588 88.1545 89.3917 88.0195 88.7383 87.7496C88.0885 87.4798 87.5807 87.0803 87.2149 86.5511C86.8527 86.0185 86.6627 85.3597 86.6449 84.5749H88.8768C88.9017 84.9407 89.0064 85.2461 89.1911 85.4911C89.3793 85.7326 89.6297 85.9155 89.9422 86.0398C90.2582 86.1605 90.6151 86.2209 91.0128 86.2209C91.4035 86.2209 91.7426 86.1641 92.0302 86.0504C92.3214 85.9368 92.5469 85.7788 92.7067 85.5763C92.8665 85.3739 92.9464 85.1413 92.9464 84.8786C92.9464 84.6335 92.8736 84.4276 92.728 84.2607C92.586 84.0937 92.3765 83.9517 92.0995 83.8345C91.826 83.7173 91.4905 83.6108 91.0927 83.5149L89.9049 83.2166C88.9851 82.9929 88.2589 82.6431 87.7263 82.1673C87.1936 81.6914 86.929 81.0504 86.9326 80.2443C86.929 79.5838 87.1048 79.0067 87.4599 78.5131C87.8186 78.0195 88.3104 77.6342 88.9354 77.3572C89.5604 77.0803 90.2706 76.9418 91.0661 76.9418C91.8758 76.9418 92.5824 77.0803 93.1861 77.3572C93.7934 77.6342 94.2657 78.0195 94.603 78.5131C94.9404 79.0067 95.1144 79.5785 95.125 80.2283H92.9145Z" fill="white"/>
</svg>
